<?xml version="1.0" encoding="iso-8859-1"?>
<!-- Generator: Adobe Illustrator 19.0.0, SVG Export Plug-In . SVG Version: 6.00 Build 0)  -->
<svg version="1.1" id="Layer_1" xmlns="http://www.w3.org/2000/svg" xmlns:xlink="http://www.w3.org/1999/xlink" x="0px" y="0px"
	 viewBox="0 0 512.001 512.001" style="enable-background:new 0 0 512.001 512.001;" xml:space="preserve">
<g>
	<g>
		<g>
			<path d="M444.973,197.765c-11.523-16.718-27.006-29.997-45.098-38.771c2.291-6.007,3.558-12.516,3.558-19.318
				c0-21.4-12.597-40.673-31.822-49.436c-5.244-37.935-38.077-66.976-76.836-66.976c-8.876,0-17.563,1.504-25.902,4.478
				C254.178,10.269,232.403,0,209.471,0c-28.672,0-54.774,15.758-68.261,40.673c-5.594-1.261-11.302-1.898-17.043-1.898
				c-42.808,0-77.637,34.828-77.637,77.637c0,21.653,8.92,41.253,23.265,55.349v274.691c0,36.143,29.405,65.549,65.549,65.549
				h163.765c36.143,0,65.549-29.405,65.549-65.549v-67.329c26.525-3.553,50.953-16.111,69.419-35.845
				c20.246-21.635,31.395-49.877,31.395-79.522C465.47,240.04,458.382,217.221,444.973,197.765z M299.108,496.315H135.343
				c-27.494,0-49.864-22.368-49.864-49.863V183.68c11.399,6.582,24.605,10.369,38.686,10.369c18.996,0,37.241-7.014,51.364-19.508
				c10.23,12.223,25.461,19.508,41.695,19.508c17.903,0,34.283-8.649,44.384-23.016c10.372,4.928,21.696,7.506,33.165,7.506
				c4.875,0,9.848-0.501,14.838-1.492c10.235,10.843,24.314,16.976,39.359,17v252.404h0.001
				C348.971,473.945,326.602,496.315,299.108,496.315z M318.632,163.507l-3.176-4.049l-4.98,1.303
				c-5.31,1.39-10.593,2.093-15.703,2.093c-11.216,0-22.271-3.102-31.969-8.968l-7.244-4.383l-3.816,7.557
				c-6.635,13.14-19.862,21.303-34.52,21.303c-13.979,0-26.916-7.602-33.765-19.839l-5.423-9.687l-7.319,8.348
				c-11.799,13.459-28.768,21.178-46.553,21.178c-34.16,0-61.952-27.791-61.952-61.952c0-34.16,27.791-61.952,61.952-61.952
				c6.395,0,12.743,0.991,18.865,2.948l6.762,2.159l2.82-6.514c9.834-22.701,32.152-37.369,56.858-37.369
				c19.95,0,38.807,9.752,50.445,26.087l3.728,5.233l5.864-2.627c8.042-3.601,16.544-5.428,25.266-5.428
				c32.252,0,59.359,25.204,61.713,57.379l0.376,5.144l4.872,1.693c15.558,5.404,26.01,20.076,26.01,36.512
				c0.001,21.331-17.353,38.686-38.686,38.686C337.13,178.364,326.039,172.948,318.632,163.507z M364.657,363.272V191.758
				c11.072-3.322,20.665-10.083,27.541-19.039c35.178,16.626,57.587,51.704,57.587,91.036
				C449.785,313.55,413.023,355.725,364.657,363.272z"/>
			<path d="M147.519,426.608V201.716h-15.685v224.892c0,4.228-3.439,7.667-7.667,7.667c-4.228,0-7.667-3.439-7.667-7.667V201.716
				h-15.685v224.892c0,12.877,10.477,23.352,23.352,23.352C137.042,449.961,147.519,439.485,147.519,426.608z"/>
			<path d="M186.206,449.961c12.876,0,23.352-10.476,23.352-23.352V201.716h-15.685v224.892c0,4.228-3.439,7.667-7.667,7.667
				s-7.667-3.439-7.667-7.667V201.716h-15.685v224.892C162.854,439.485,173.33,449.961,186.206,449.961z"/>
			<path d="M248.246,449.961c12.875,0,23.352-10.476,23.352-23.352V201.716h-15.685v224.892c0,4.228-3.439,7.667-7.667,7.667
				c-4.228,0-7.667-3.439-7.667-7.667V201.716h-15.685v224.892C224.893,439.485,235.37,449.961,248.246,449.961z"/>
			<path d="M317.952,426.608c0,4.228-3.44,7.667-7.668,7.667c-4.228,0-7.667-3.439-7.667-7.667V201.716h-15.685v224.892
				c0,12.877,10.477,23.352,23.352,23.352c12.877,0,23.353-10.476,23.353-23.352V201.716h-15.685V426.608z"/>
			<path d="M93.06,108.657h15.685c0-8.503,6.918-15.423,15.422-15.423V77.549C107.013,77.549,93.06,91.504,93.06,108.657z"/>
			<rect x="131.924" y="465.299" width="170.604" height="15.685"/>
		</g>
	</g>
</g>
<g>
</g>
<g>
</g>
<g>
</g>
<g>
</g>
<g>
</g>
<g>
</g>
<g>
</g>
<g>
</g>
<g>
</g>
<g>
</g>
<g>
</g>
<g>
</g>
<g>
</g>
<g>
</g>
<g>
</g>
</svg>
